<?xml version="1.0" encoding="utf-8"?>
<!-- Generator: Adobe Illustrator 15.1.0, SVG Export Plug-In  -->
<!DOCTYPE svg PUBLIC "-//W3C//DTD SVG 1.1//EN" "http://www.w3.org/Graphics/SVG/1.1/DTD/svg11.dtd" [
	<!ENTITY ns_flows "http://ns.adobe.com/Flows/1.0/">
]>
<svg version="1.1"
	 xmlns="http://www.w3.org/2000/svg" xmlns:xlink="http://www.w3.org/1999/xlink" xmlns:a="http://ns.adobe.com/AdobeSVGViewerExtensions/3.0/"
	 x="0px" y="0px" width="206px" height="273px" viewBox="-16.8 -14.5 206 273"
	 overflow="visible" enable-background="new -16.8 -14.5 206 273" xml:space="preserve">
<defs>
</defs>
<path fill-rule="evenodd" clip-rule="evenodd" fill="#4971B8" d="M156.5,62.5l-12.8,151.2l-57.8,16.5L85.6,62.5H156.5z M172.4,48.4
	c0,0-10.5,118.9-16.2,176.4C133.2,231.6,87.4,245,86,245c-1,0-46.8-13.4-70.2-20.1C10.5,167.3,0,48.4,0,48.4H172.4z"/>
<polygon fill-rule="evenodd" clip-rule="evenodd" fill="#5690CC" points="156.7,62.3 143.9,214.4 85.4,230.7 85.4,62.3 "/>
<polygon fill-rule="evenodd" clip-rule="evenodd" fill="#FFFFFF" points="140.2,84.8 137.9,105.2 90.5,128.4 136.2,128.4 
	130.7,195.3 85.1,207.6 41.7,195 38.6,161.1 60.8,161.3 61.7,178.2 85.1,184.6 110.8,178 113,149.8 37.6,150 36,129.4 87,106.6 
	33.9,105.8 32.5,84.8 "/>
<path fill-rule="evenodd" clip-rule="evenodd" fill="#010101" d="M137.6,0v11.4h-8.8l8.6,11.9v9.5h-25.8V22.3h8.4
	c0,0,0.2-0.2,0.2-0.5l-9.3-13.1V0H137.6z M100,0v11.4h-8.6L100,23v9.7H74.2V22.1h8.6L73.5,8.5V0H100z M62.1,0v10.9H46.6v11.4h15.5
	v10.4H35.4V0H62.1z"/>
</svg>
