<?xml version="1.0" encoding="utf-8"?>
<!-- Generator: Adobe Illustrator 15.1.0, SVG Export Plug-In  -->
<!DOCTYPE svg PUBLIC "-//W3C//DTD SVG 1.1//EN" "http://www.w3.org/Graphics/SVG/1.1/DTD/svg11.dtd" [
	<!ENTITY ns_flows "http://ns.adobe.com/Flows/1.0/">
]>
<svg version="1.1"
	 xmlns="http://www.w3.org/2000/svg" xmlns:xlink="http://www.w3.org/1999/xlink" xmlns:a="http://ns.adobe.com/AdobeSVGViewerExtensions/3.0/"
	 x="0px" y="0px" width="206px" height="273px" viewBox="-16.8 -14.5 206 273"
	 overflow="visible" enable-background="new -16.8 -14.5 206 273" xml:space="preserve">
<defs>
</defs>
<path fill-rule="evenodd" clip-rule="evenodd" fill="#E34F26" d="M156.5,62.5l-12.8,151.2l-57.8,16.5L85.6,62.5H156.5z M172.4,48.4
	c0,0-10.5,118.9-16.2,176.4C133.2,231.6,87.4,245,86,245c-1,0-46.8-13.4-70.2-20.1C10.5,167.3,0,48.4,0,48.4H172.4z"/>
<polygon fill-rule="evenodd" clip-rule="evenodd" fill="#F1662A" points="156.6,62.3 143.9,214.4 85.4,230.7 85.4,62.3 "/>
<path fill-rule="evenodd" clip-rule="evenodd" fill="#FFFFFF" d="M139.9,84.9l-1.9,20.6H55.4l2.1,22.8l78.6,0.2l-5.7,66.7l-44.4,12
	l-43.9-12l-2.9-33.6h21l1.4,16.8l24.4,6.7c0,0,16.2-4.3,24.4-6.7c0.5,0,2.9-28.8,2.9-28.8H37.7l-5.2-64.7H139.9z"/>
<path fill-rule="evenodd" clip-rule="evenodd" fill="#010101" d="M141.4,0v22h15.3v10.6h-25.8V0H141.4z M99.3,0
	c2.4,3.8,4.3,7.7,7.2,11.5L113.7,0h11v32.6h-10.5V16.3c-2.9,3.8-5.3,7.7-7.6,11.5l-8.1-11.5v16.3h-10V0H99.3z M82.6,0v10.5h-9.6
	v22.1H62.6V10.5H53V0H82.6z M26.3,0v11h11V0h10v32.6h-10v-11h-11v11h-10V0H26.3z"/>
</svg>
