<?xml version="1.0" encoding="utf-8"?>
<!-- Generator: Adobe Illustrator 15.1.0, SVG Export Plug-In  -->
<!DOCTYPE svg PUBLIC "-//W3C//DTD SVG 1.1//EN" "http://www.w3.org/Graphics/SVG/1.1/DTD/svg11.dtd" [
	<!ENTITY ns_flows "http://ns.adobe.com/Flows/1.0/">
]>
<svg version="1.1"
	 xmlns="http://www.w3.org/2000/svg" xmlns:xlink="http://www.w3.org/1999/xlink" xmlns:a="http://ns.adobe.com/AdobeSVGViewerExtensions/3.0/"
	 x="0px" y="0px" width="206px" height="273px" viewBox="-16.8 -14.5 206 273"
	 overflow="visible" enable-background="new -16.8 -14.5 206 273" xml:space="preserve">
<defs>
</defs>
<path fill-rule="evenodd" clip-rule="evenodd" fill="#03A48F" d="M156.5,62.5l-12.8,151.2l-57.8,16.5L85.6,62.5H156.5z M172.4,48.4
	c0,0-10.5,118.9-16.2,176.4C133.2,231.6,87.4,245,86,245c-1,0-46.8-13.4-70.2-20.1C10.5,167.3,0,48.4,0,48.4H172.4z"/>
<polygon fill-rule="evenodd" clip-rule="evenodd" fill="#6DC8C2" points="156.7,62.3 143.8,214.4 85.4,230.7 85.4,62.3 "/>
<path fill-rule="evenodd" clip-rule="evenodd" fill="#FFFFFF" d="M116.1,127.7H56.9l-1.2-21.9l62.5,0.2L116.1,127.7z M139.1,85.1
	c0,0.9-5.1,65.3-5.1,65.3h-14.9l9.3,45.2l-26.2,7.3l-5.1-52.6l-38.6-0.3l6.9,51.8L41.4,195L31.6,85.1H139.1z"/>
<path fill-rule="evenodd" clip-rule="evenodd" fill="#010101" d="M30.6,0.3c-0.4-1.1,0,32,0,32h10.5v-9.3c0,0,1.1-0.5,8.1,9.3
	c0.1,0.1,12.1,0,12.1,0l-7.5-11.1c0,0,9.9-2.8,5.1-14.8C55.3-2.6,31,1.4,30.6,0.3 M40.9,9.6c0,0,9-1.4,8.8,3.1
	c-0.2,4-8.8,2.9-8.8,2.9V9.6z M71.4,0.5H60.5l9.9,32h9.5l5.4-15.6l5.5,15.6h9.5l10.3-32.2H99.3L95,15.8L90,0.1h-8.9l-5,15.4
	L71.4,0.5z M112,0.7l0.2,31.6c0,0,34,5.6,30.7-18.8C140.5-4.4,112,0.7,112,0.7 M122.7,10c0,0,8.5-1.3,9.3,5.6c1,8.6-9.3,7.4-9.3,7.4
	V10z"/>
</svg>
